<svg xmlns="http://www.w3.org/2000/svg" xmlns:xlink="http://www.w3.org/1999/xlink" width="208" height="161" viewBox="0 0 208 161">
  <defs>
    <clipPath id="clip-path">
      <rect id="長方形_11" data-name="長方形 11" width="208" height="161" fill="#ede5dc" stroke="#707070" stroke-width="1" opacity="0.37"/>
    </clipPath>
  </defs>
  <g id="マスクグループ_1" data-name="マスクグループ 1" clip-path="url(#clip-path)">
    <g id="PORTFORIO-RinaFujishima_ol" transform="translate(0 50.972)">
      <path id="パス_1" data-name="パス 1" d="M73.111,347.041c.442,0,1.525-.051,2.968-.163,2.084-.107,4.167-.163,5.59-.163,4,0,6.048.656,7.623,2.505s2.323,4.249,2.323,7.46c0,3.974-1.3,7.242-3.486,8.711-1.21.869-2.826,1.189-5.387,1.189H80.109v8c.036,5.936.412,6.917,2.871,6.973h.681v1.8h-11.1v-1.794h.549c2.424-.056,2.8-1.016,2.831-6.973V355.538c-.03-5.936-.376-6.7-2.968-6.7h-.447v-1.8Zm8.467,17.589c1.779,0,2.541-.219,3.486-1.016,1.26-1.088,2.033-3.593,2.033-6.8s-.752-5.88-2.033-7.023c-.889-.818-1.779-1.088-3.654-1.088a8.381,8.381,0,0,0-1.265.056v15.9Z" transform="translate(-72.527 -346.39)"/>
      <path id="パス_2" data-name="パス 2" d="M176.07,364.3c0,11.216-5.082,18.89-12.532,18.89s-12.5-7.73-12.5-18.834c0-11.216,5.123-18.839,12.705-18.839C170.911,345.516,176.07,353.357,176.07,364.3Zm-20.115-.219a37.868,37.868,0,0,0,1.469,11.76c1.123,3.268,3.481,5.28,6.215,5.28,4.914,0,7.511-5.717,7.511-16.547a37.479,37.479,0,0,0-1.525-11.653c-1.128-3.324-3.451-5.336-6.1-5.336-4.909,0-7.572,5.824-7.572,16.5Z" transform="translate(-129.757 -345.516)"/>
      <path id="パス_3" data-name="パス 3" d="M270.655,383.2c-1.057-1.306-2.7-4.737-4.406-9.036-2.9-7.186-3.557-8.167-5.153-7.948h-.823v8.218c.036,5.936.412,6.917,2.836,6.973h.854V383.2H252.588v-1.794h.656c2.424-.056,2.8-1.016,2.836-6.973V355.388c0-5.936-.376-6.7-2.973-6.7H252.7v-1.8l4.1-.213c2.358-.112,3.69-.168,4.681-.168,3.415,0,6.1.762,7.75,2.236,1.779,1.575,2.8,4.193,2.8,7.349,0,4.736-1.946,7.73-5.839,9.036q1.525,1.4,4.711,8.64c2.6,5.717,3.964,7.455,6.048,7.623h.183V383.2Zm-10.383-18.946a22.087,22.087,0,0,0,3.624-.274c2.353-.508,3.557-3.1,3.557-7.623a11.057,11.057,0,0,0-1.331-5.992c-.854-1.25-2.221-1.794-4.538-1.794a12.681,12.681,0,0,0-1.337.051Z" transform="translate(-203.785 -346.24)"/>
      <path id="パス_4" data-name="パス 4" d="M340.547,357.175l.071-9.26h22.3l.1,9.26h-1.128c-.818-6.21-1.708-7.516-4.986-7.354h-3.075v25.644c.036,5.936.412,6.917,2.836,6.973h.955v1.789h-11.75v-1.794h.966c2.424-.056,2.8-1.016,2.831-6.973V349.821H346.8c-3.557-.163-4.371.981-5.082,7.354Z" transform="translate(-267.904 -347.265)"/>
      <path id="パス_5" data-name="パス 5" d="M447.559,357.162H446.4c-.722-5.717-2.119-7.623-5.367-7.354H436.8v14.428h2.033c2.292-.051,2.836-.762,3.049-4.025l.036-1.143h1.194v12.705h-1.194l-.1-2.124c-.274-2.775-.854-3.486-2.973-3.486H436.81v9.366c0,5.773.478,6.917,2.9,6.917h.686v1.769H429.218v-1.794h.554c2.424-.056,2.8-1.016,2.831-6.917V356.394c-.031-5.88-.376-6.7-2.937-6.7h-.4v-1.8h18.1Z" transform="translate(-332.542 -347.251)"/>
      <path id="パス_6" data-name="パス 6" d="M528.387,364.3c0,11.216-5.082,18.89-12.532,18.89s-12.5-7.73-12.5-18.834c0-11.216,5.123-18.839,12.705-18.839C523.233,345.516,528.387,353.357,528.387,364.3Zm-20.115-.219a37.868,37.868,0,0,0,1.469,11.76c1.128,3.268,3.486,5.28,6.215,5.28,4.919,0,7.516-5.717,7.516-16.547a37.632,37.632,0,0,0-1.525-11.653c-1.123-3.324-3.446-5.336-6.1-5.336C510.935,347.584,508.272,353.408,508.272,364.08Z" transform="translate(-386.587 -345.516)"/>
      <path id="パス_7" data-name="パス 7" d="M622.977,383.2c-1.057-1.306-2.7-4.737-4.406-9.036-2.9-7.186-3.557-8.167-5.158-7.948h-.818v8.218c.036,5.936.412,6.917,2.836,6.973h.859V383.2H604.91v-1.794h.65c2.424-.056,2.8-1.016,2.831-6.973V355.388c0-5.936-.371-6.7-2.968-6.7h-.412v-1.8l4.1-.213c2.353-.112,3.685-.168,4.676-.168,3.415,0,6.1.762,7.755,2.236a9.646,9.646,0,0,1,2.8,7.349c0,4.736-1.946,7.73-5.839,9.036q1.525,1.4,4.711,8.64c2.6,5.717,3.959,7.455,6.043,7.623h.173V383.2Zm-10.383-18.946a22.017,22.017,0,0,0,3.618-.274c2.358-.508,3.588-3.1,3.588-7.623a11.057,11.057,0,0,0-1.331-5.992c-.854-1.25-2.221-1.794-4.543-1.794a12.584,12.584,0,0,0-1.331.051Z" transform="translate(-460.615 -346.24)"/>
      <path id="パス_8" data-name="パス 8" d="M694.5,347.916h10.982v1.8h-.442c-2.6,0-2.937.762-2.973,6.7v19.053c.036,5.936.412,6.917,2.871,6.973h.544v1.789H694.5v-1.794h.549c2.424-.056,2.8-1.016,2.831-6.973V356.413c-.031-5.936-.376-6.7-2.968-6.7H694.5Z" transform="translate(-525.923 -347.265)"/>
      <path id="パス_9" data-name="パス 9" d="M769.312,364.3c0,11.216-5.082,18.89-12.532,18.89s-12.5-7.73-12.5-18.834c0-11.216,5.123-18.839,12.705-18.839C764.159,345.516,769.312,353.357,769.312,364.3ZM749.2,364.08a37.868,37.868,0,0,0,1.469,11.76c1.128,3.268,3.486,5.28,6.215,5.28,4.919,0,7.516-5.717,7.516-16.547a37.632,37.632,0,0,0-1.525-11.653c-1.123-3.324-3.446-5.336-6.1-5.336C751.86,347.584,749.2,353.408,749.2,364.08Z" transform="translate(-562.212 -345.516)"/>
      <path id="パス_10" data-name="パス 10" d="M430.555,514.842a11.47,11.47,0,0,1-2.175-3.049c-1.428-2.648-1.748-3.136-2.541-3.166l-.407-.071V511.4c0,1.977.2,2.287,1.4,2.48l.417.061v.549q-2.8-.356-5.59-.859v-.615l.32.061c1.194.2,1.382-.081,1.4-2.079V504.3c0-2.155-.188-2.46-1.469-2.5h-.2v-.615l2.033-.066c1.164-.03,1.819-.051,2.307-.051a6.018,6.018,0,0,1,3.827,1.016,4.254,4.254,0,0,1,1.382,3.283,2.872,2.872,0,0,1-2.882,3.242,16,16,0,0,1,2.323,3.354c1.281,2.033,1.957,2.511,2.983,2.663h.081v.508Q432.151,515,430.555,514.842Zm-5.123-7.008a13.409,13.409,0,0,0,1.789.188c1.159,0,1.769-.894,1.769-2.734a4.34,4.34,0,0,0-.656-2.541,2.652,2.652,0,0,0-2.241-.833h-.661Z" transform="translate(-327.033 -458.909)"/>
      <path id="パス_11" data-name="パス 11" d="M469.167,513.009c.03,1.428.152,1.525,1.016,1.611h.147v.478q-2.033-.1-4.127-.254v-.508h.254c.894.041,1.016-.061,1.016-1.494v-2.4c0-1.586-.168-1.967-1.057-2.033h-.224v-.686a13.725,13.725,0,0,0,2.815-.473h.152Zm.132-10.555c0,.971-.473,1.687-1.077,1.662s-1.062-.762-1.062-1.728.508-1.687,1.062-1.692,1.077.818,1.077,1.758Z" transform="translate(-359.496 -458.636)"/>
      <path id="パス_12" data-name="パス 12" d="M485.357,526.565a9.587,9.587,0,0,0,2.511-.508h.066a5.082,5.082,0,0,1,.219,1.525v.193a3.227,3.227,0,0,1,2.663-1.748,2.109,2.109,0,0,1,1.87,1.276,4.685,4.685,0,0,1,.285,2.109V531.8c.036,1.448.117,1.474,1.016,1.525h.1v.468h-3.857v-.462h.132c.844-.056.925-.1.925-1.525v-3.049c0-.945-.452-1.606-1.174-1.611s-1.332.549-1.957,1.6v3c0,1.423.086,1.489.945,1.525h.081v.462c-1.276,0-2.541-.056-3.822-.107v-.473h.071c.894,0,1.016-.081,1.016-1.494V529.31c-.036-1.7-.152-1.987-1.016-2.033h-.066Z" transform="translate(-373.465 -477.102)"/>
      <path id="パス_13" data-name="パス 13" d="M529.872,531.913c-.051.879-.676,1.372-1.652,1.413a1.35,1.35,0,0,1-1.525-.864,5.117,5.117,0,0,1-2.744,1.016c-1.016,0-1.769-.452-1.769-1.24,0-.6.32-1.088,1.077-1.616.508-.351,1.57-.955,2.409-1.4.325-.158.651-.325.981-.508V528.2a3.05,3.05,0,0,0-.152-1.23,1.266,1.266,0,0,0-1.281-.676,1.469,1.469,0,0,0-1.016.412,1.627,1.627,0,0,0-.254.808c-.1.661-.371.986-.823,1.016a.661.661,0,0,1-.676-.727,2.144,2.144,0,0,1,.925-1.55,3.842,3.842,0,0,1,2.226-.706,2.555,2.555,0,0,1,2.287.879c.371.457.457.859.457,1.952v3.12c0,.93.117,1.133.508,1.123.3,0,.508-.249.61-.666Zm-3.639-2.323c-1.667.823-2.292,1.428-2.292,2.251a.884.884,0,0,0,.945.925,3.171,3.171,0,0,0,1.753-.864v-2.541Z" transform="translate(-400.31 -476.752)"/>
      <path id="パス_14" data-name="パス 14" d="M579.876,505.28l-.574.041c-.351-2.185-1.016-3-2.643-2.851l-2.089.041v5.9l1.016-.091c1.128-.127,1.4-.4,1.525-1.662v-.442l.589-.046v4.64l-.589.061c0-.239-.031-.483-.051-.732-.132-.971-.422-1.21-1.464-1.113l-1.016.1v3.273c0,1.875.234,2.14,1.433,2.033l.335-.025v.539q-2.755.219-5.509.407v-.508h.29c1.194-.127,1.377-.356,1.4-2.256v-7.14c0-2.505-.188-2.948-1.448-2.907h-.2v-.844l8.924-.041Q579.836,503.521,579.876,505.28Z" transform="translate(-435.779 -459.333)"/>
      <path id="パス_15" data-name="パス 15" d="M614.532,524.28c0,1.591.147,1.83,1.016,1.763h.051v.63a8.865,8.865,0,0,0-2.455.508h-.1a4.762,4.762,0,0,1-.188-1.575,3.4,3.4,0,0,1-2.577,1.809,2.033,2.033,0,0,1-1.921-.833,3.049,3.049,0,0,1-.269-1.55V522.38c0-1.641-.117-1.86-.991-1.789h-.086v-.651l2.765-.259v5.189a2.606,2.606,0,0,0,.152,1.149,1.016,1.016,0,0,0,.955.468,2.363,2.363,0,0,0,1.84-1.677,4.068,4.068,0,0,0,.132-.833v-2.1c0-1.611-.117-1.8-1.016-1.733h-.132v-.63l2.846-.269Z" transform="translate(-462.146 -472.154)"/>
      <path id="パス_16" data-name="パス 16" d="M639.952,512.943a8.422,8.422,0,0,1-.32,3.049,3.12,3.12,0,0,1-2.963,2.033c-1.083,0-1.855-.508-1.855-1.24a.778.778,0,0,1,.691-.813c.386,0,.574.163.793.828a.772.772,0,0,0,.722.559,1.164,1.164,0,0,0,.961-.711,5.685,5.685,0,0,0,.285-2.541v-6.088c0-1.489-.168-1.713-1.057-1.606l-.219.025v-.61a25.033,25.033,0,0,0,2.81-.793h.152Zm.081-11.145a1.128,1.128,0,0,1-1.057,1.113,1.016,1.016,0,0,1-1.083-1.067,1.082,1.082,0,0,1,1.083-1.057,1.016,1.016,0,0,1,1.057.976Z" transform="translate(-482.413 -458.702)"/>
      <path id="パス_17" data-name="パス 17" d="M662.948,509.7c.031,1.7.147,1.946,1.016,1.885h.152v.7c-1.372.1-2.749.219-4.127.33v-.666l.254-.025c.894-.091.991-.356,1.016-2.033v-2.465c0-1.443-.168-1.662-1.062-1.586h-.219v-.554a26.636,26.636,0,0,0,2.815-.752h.152Zm.132-8.167A1.082,1.082,0,0,1,662,502.548a.971.971,0,0,1-1.062-.955,1.081,1.081,0,0,1,2.139-.061Z" transform="translate(-500.759 -458.589)"/>
      <path id="パス_18" data-name="パス 18" d="M679.987,518.978l.508-.046c.366,1.367,1.093,2.114,2.119,2.033A1.4,1.4,0,0,0,683.9,519.5c0-.727-.457-1.21-1.448-1.555a4.426,4.426,0,0,1-1.667-.8,1.916,1.916,0,0,1-.778-1.5,2.236,2.236,0,0,1,2.124-2.165,2.881,2.881,0,0,1,1.733.468,1.8,1.8,0,0,0,.32-.508l.442-.031v2.033l-.457.036a1.865,1.865,0,0,0-1.9-1.525,1.128,1.128,0,0,0-1.149.981c0,.508.508.94,1.525,1.194a3.542,3.542,0,0,1,1.723.737,2.506,2.506,0,0,1,.737,1.88,2.723,2.723,0,0,1-2.358,2.907,2.384,2.384,0,0,1-1.769-.64.507.507,0,0,0-.132-.122,2.282,2.282,0,0,0-.356.828l-.473.031Z" transform="translate(-515.343 -467.903)"/>
      <path id="パス_19" data-name="パス 19" d="M703.558,501.012c.722-.041,2.292-.208,2.643-.279h.152v4.289a3.186,3.186,0,0,1,2.541-1.321,2.251,2.251,0,0,1,2.007.8,3.342,3.342,0,0,1,.285,1.8v2.3c.031,1.84.117,2.114.991,2.094h.122v.767c-1.291.025-2.587.066-3.878.117v-.752h.137c.839-.086.925-.335.925-2.15v-2.541c0-.859-.117-1.271-.386-1.479a1.4,1.4,0,0,0-.859-.224,2.253,2.253,0,0,0-1.87,1.4v3c0,1.8.086,2.033.945,2.033h.051v.752q-1.911.086-3.827.193v-.737h.137c.889-.076.976-.3,1.016-2.134v-6.607c0-.823-.173-.95-1.016-.966h-.1Z" transform="translate(-532.511 -458.663)"/>
      <path id="パス_20" data-name="パス 20" d="M742.038,508.486c.036,1.8.152,2.129,1.016,2.134h.152v.767q-2.058,0-4.127.03v-.767h.254c.894,0,.991-.346,1.016-2.15v-2.5c0-1.382-.168-1.55-1.062-1.55h-.219v-.483c.625-.056,2.241-.32,2.815-.457h.152Zm.137-7.237c0,.335-.473.661-1.077.661s-1.062-.315-1.062-.666.508-.549,1.062-.549S742.175,500.918,742.175,501.249Z" transform="translate(-558.413 -458.636)"/>
      <path id="パス_21" data-name="パス 21" d="M758.1,511.825a20.778,20.778,0,0,0,2.511-.33h.066a2.15,2.15,0,0,1,.224,1.016v.107a3.126,3.126,0,0,1,2.541-1.093,2.1,2.1,0,0,1,2.089,1.443,3.1,3.1,0,0,1,2.643-1.159,2.45,2.45,0,0,1,1.921,1.047c.239.457.269.635.269,1.824V517.1c.036,1.809.117,2.033,1.016,2.14h.1v.711q-1.885-.188-3.756-.325v-.737h.066c.823,0,.889-.188.889-1.987v-2.653c0-1.174-.32-1.6-1.108-1.672-.661-.051-1.215.249-1.936,1.133v2.978c0,1.779.081,2.033.859,2.15h.046v.747q-1.794-.117-3.583-.183v-.757h.066c.828,0,.894-.234.894-2.063v-2.434a2.794,2.794,0,0,0-.188-1.377,1.179,1.179,0,0,0-.94-.508,1.931,1.931,0,0,0-1.484.651c-.371.4-.371.4-.422.447V516.4c0,1.8.086,2.073.879,2.15h.066v.762c-1.235-.041-2.47-.061-3.7-.076v-.767h.066c.894,0,1.016-.31,1.016-2.114V513.94c-.036-1.469-.152-1.57-1.016-1.616h-.086Z" transform="translate(-572.286 -466.509)"/>
      <path id="パス_22" data-name="パス 22" d="M819.826,522.765a1.321,1.321,0,0,1-1.652,1.387,1.814,1.814,0,0,1-1.525-1.525,4.134,4.134,0,0,1-2.749.9,2.033,2.033,0,0,1-1.763-2.033,1.835,1.835,0,0,1,1.077-1.748,12.656,12.656,0,0,1,2.409-.93l.976-.244v-.473a2.424,2.424,0,0,0-.152-1.088,1.646,1.646,0,0,0-1.281-.783,1.524,1.524,0,0,0-1.016.142c-.117.081-.188.259-.254.6-.1.508-.371.767-.823.7a.762.762,0,0,1-.676-.727,1.291,1.291,0,0,1,.925-1.062,4.463,4.463,0,0,1,2.226-.163,3.344,3.344,0,0,1,2.292,1.123,2.383,2.383,0,0,1,.452,1.8v3.2c0,1.082.117,1.413.508,1.484.3.056.508-.188.6-.656Zm-3.639-3.451c-1.667.437-2.292.976-2.292,1.987a1.326,1.326,0,0,0,.945,1.387,2.6,2.6,0,0,0,1.753-.752v-2.729Z" transform="translate(-611.674 -469.541)"/>
    </g>
  </g>
</svg>
